<svg xmlns="http://www.w3.org/2000/svg" width="128" height="128" viewBox="0 0 128 128">
  <defs>
    <linearGradient id="shieldGradient" x1="0%" y1="0%" x2="0%" y2="100%">
      <stop offset="0%" style="stop-color:#1976d2;stop-opacity:1" />
      <stop offset="100%" style="stop-color:#0d47a1;stop-opacity:1" />
    </linearGradient>
    <style>
      .shield { fill: url(#shieldGradient); }
      .lock { fill: white; }
      .lockOutline { fill: none; stroke: white; stroke-width: 4; stroke-linecap: round; stroke-linejoin: round; }
    </style>
  </defs>
  <!-- Shadow -->
  <ellipse cx="64" cy="120" rx="40" ry="6" fill="#00000020"/>
  <!-- Shield -->
  <path class="shield" d="M64 8 L116 24 L116 56 C116 88 92 112 64 120 C36 112 12 88 12 56 L12 24 Z"/>
  <!-- Lock body -->
  <rect class="lock" x="44" y="56" width="40" height="32" rx="4"/>
  <!-- Lock shackle -->
  <path class="lockOutline" d="M52 56 L52 44 C52 34 56 28 64 28 C72 28 76 34 76 44 L76 56"/>
  <!-- Keyhole -->
  <circle cx="64" cy="68" r="6" fill="#1976d2"/>
  <rect x="62" y="68" width="4" height="12" fill="#1976d2"/>
</svg>
